# xmcd CD database file
#
# Track frame offsets:
#	150
#	19603
#	36776
#	50300
#	67551
#	85780
#	96334
#	115033
#	132802
#	151724
#	171752
#	184775
#	201988
#
# Disc length: 2950 seconds
#
# Revision: 0
# Processed by: cddbd v1.5.2PL0 Copyright (c) Steve Scherf et al.
# Submitted via: CDex 1.70beta2
#
DISCID=970b840d
DTITLE=Andreas Vollenweider - VOX
DYEAR=2004
DGENRE=New Age
TTITLE0=Wake Up and Dance
TTITLE1=Pilgrim
TTITLE2=Seven Doors
TTITLE3=Enchanted Rocks
TTITLE4=These Hearts of Gold
TTITLE5=The King and the Fool
TTITLE6=The Sons of Sysiphos
TTITLE7=Paper Walls
TTITLE8=Innocent
TTITLE9=Ripples in the Lake of Time
TTITLE10=Silver Moment
TTITLE11=Kira`s Waltz
TTITLE12=What if it wasn`t a Dream
EXTD=YEAR: 2004
EXTT0=
EXTT1=
EXTT2=
EXTT3=
EXTT4=
EXTT5=
EXTT6=
EXTT7=
EXTT8=
EXTT9=
EXTT10=
EXTT11=
EXTT12=
PLAYORDER=
